<svg width="20" height="14" viewBox="0 0 20 14" fill="none" xmlns="http://www.w3.org/2000/svg">
<path fill-rule="evenodd" clip-rule="evenodd" d="M0.833984 7C2.27565 3.34167 5.83398 0.75 10.0007 0.75C14.1673 0.75 17.7256 3.34167 19.1673 7C17.7256 10.6583 14.1673 13.25 10.0007 13.25C5.83398 13.25 2.27565 10.6583 0.833984 7ZM17.3507 7C15.9757 4.19167 13.159 2.41667 10.0007 2.41667C6.84233 2.41667 4.02566 4.19167 2.65066 7C4.02566 9.80833 6.84233 11.5833 10.0007 11.5833C13.159 11.5833 15.9757 9.80833 17.3507 7ZM10.0007 4.91667C11.1507 4.91667 12.084 5.85 12.084 7C12.084 8.15 11.1507 9.08333 10.0007 9.08333C8.85065 9.08333 7.91732 8.15 7.91732 7C7.91732 5.85 8.85065 4.91667 10.0007 4.91667ZM6.25065 7C6.25065 4.93333 7.93398 3.25 10.0007 3.25C12.0673 3.25 13.7507 4.93333 13.7507 7C13.7507 9.06667 12.0673 10.75 10.0007 10.75C7.93398 10.75 6.25065 9.06667 6.25065 7Z" />
</svg>
